{"title":"Roshan Prince Guzarishaan (Full Video) Gurmeet Singh - Full 1080","uid":12411445,"size":73079643,"categoryP":"video","categoryS":"music_videos","magnet":"?xt=urn:btih:a94e1d09f9dfc42b2505ec307abb2efed8040e78&amp;dn=Roshan+Prince+Guzarishaan+%28Full+Video%29+Gurmeet+Singh+-+Full+1080&amp;tr=udp%3A%2F%2Ftracker.openbittorrent.com%3A80&amp;tr=udp%3A%2F%2Fopen.demonii.com%3A1337&amp;tr=udp%3A%2F%2Ftracker.coppersurfer.tk%3A6969&amp;tr=udp%3A%2F%2Fexodus.desync.com%3A6969","seeders":0,"leechers":0,"uploader":"Aainul","files":5,"time":1442155622,"description":"Roshan Prince Guzarishaan (Full Video) Gurmeet Singh - Full 1080p HD - Team truHD HEVC \n\n\n\nTeam truHD HEVC Presents \n\n\nSource: WEB-DL \n\nEncoder: truHD HEVC Encoding Team \n\nEncoded File Info: \n\nGeneral \n\nFormat                                   : MPEG-4 \nFormat profile                           : Base Media \nCodec ID                                 : iso4 \nFile size                                : 69.5 MiB \nDuration                                 : 6mn 3s \nOverall bit rate                         : 1 603 Kbps \nEncoded date                             : UTC 2015-08-27 15:17:31 \nTagged date                              : UTC 2015-08-27 15:17:31 \n\nVideo \nID                                       : 1 \nFormat                                   : HEVC \nFormat/Info                              : High Efficiency Video Coding \nCodec ID                                 : hvc1 \nCodec ID/Info                            : High Efficiency Video Coding \nDuration                                 : 6mn 3s \nBit rate                                 : 1 407 Kbps \nMaximum bit rate                         : 7 372 Kbps \nWidth                                    : 1 920 pixels \nHeight                                   : 1 080 pixels \nDisplay aspect ratio                     : 16:9 \nFrame rate mode                          : Constant \nFrame rate                               : 23.976 fps \nBits/(Pixel*Frame)                       : 0.028 \nStream size                              : 61.0 MiB (88%) \nTitle                                    : Video \nEncoded date                             : UTC 2015-08-27 15:17:31 \nTagged date                              : UTC 2015-08-27 15:17:36 \n\nAudio \nID                                       : 2 \nFormat                                   : AC-3 \nFormat/Info                              : Audio Coding 3 \nMode extension                           : CM (complete main) \nFormat settings, Endianness              : Big \nCodec ID                                 : ac-3 \nDuration                                 : 6mn 3s \nBit rate mode                            : Constant \nBit rate                                 : 192 Kbps \nMaximum bit rate                         : 201 Kbps \nChannel(s)                               : 6 channels \nChannel positions                        : Front: L C R, Side: L R, LFE \nSampling rate                            : 44.1 KHz \nBit depth                                : 16 bits \nCompression mode                         : Lossy \nStream size                              : 8.32 MiB (12%) \nTitle                                    :   \nLanguage                                 : Panjabi \nEncoded date                             : UTC 2015-08-27 15:17:35 \nTagged date                              : UTC 2015-08-27 15:17:36 \n\n\nScreenShots: \n &lt;a href=&quot;\nhttp://i.imgur.com/UKrFPPd.jpg&quot; rel=&quot;nofollow&quot; target=&quot;_NEW&quot;&gt;\nhttp://i.imgur.com/UKrFPPd.jpg&lt;/a&gt;\n\n\n\nLike Us On FB And Request Accepted\n\nKickAssTorrents:      &lt;a href=&quot;\nhttps://kat.cr/user/Aainul/&quot; rel=&quot;nofollow&quot; target=&quot;_NEW&quot;&gt;\nhttps://kat.cr/user/Aainul/&lt;/a&gt;\nGloTorrents:      &lt;a href=&quot;\nhttps://glodls.to/user/Aainul&quot; rel=&quot;nofollow&quot; target=&quot;_NEW&quot;&gt;\nhttps://glodls.to/user/Aainul&lt;/a&gt;\nThePirateBay:      &lt;a href=&quot;\nhttps://thepiratebay.vg/user/Aainul/&quot; rel=&quot;nofollow&quot; target=&quot;_NEW&quot;&gt;\nhttps://thepiratebay.vg/user/Aainul/&lt;/a&gt;\n1337x Torrents:      &lt;a href=&quot;\nhttp://1337.to/user/Aainul/&quot; rel=&quot;nofollow&quot; target=&quot;_NEW&quot;&gt;\nhttp://1337.to/user/Aainul/&lt;/a&gt;\n\n\nNote: All Videos Uploaded By Me Are For Review Purpose. If You Like IT, Google IT And Buy IT - Thanks\n\n\nKing Regards\ntruHD HEVC Team\n\nShare Among Friends And Relatives","torrent":{"xt":"urn:btih:a94e1d09f9dfc42b2505ec307abb2efed8040e78","amp;dn":"Roshan+Prince+Guzarishaan+%28Full+Video%29+Gurmeet+Singh+-+Full+1080","amp;tr":["udp%3A%2F%2Ftracker.openbittorrent.com%3A80","udp%3A%2F%2Fopen.demonii.com%3A1337","udp%3A%2F%2Ftracker.coppersurfer.tk%3A6969","udp%3A%2F%2Fexodus.desync.com%3A6969"],"infoHash":"a94e1d09f9dfc42b2505ec307abb2efed8040e78","infoHashBuffer":{"type":"Buffer","data":[169,78,29,9,249,223,196,43,37,5,236,48,122,187,46,254,216,4,14,120]},"announce":[],"urlList":[]}}